<svg data-v-fde0c5aa="" xmlns="http://www.w3.org/2000/svg" viewBox="0 0 300 300" class="iconLeft"><!----><defs data-v-fde0c5aa=""><!----></defs><rect data-v-fde0c5aa="" fill="#BB4E47" x="0" y="0" width="300px" height="300px" class="logo-background-square"></rect><defs data-v-fde0c5aa=""><!----></defs><g data-v-fde0c5aa="" id="b57461ba-5e9e-4590-ad6b-19235420a01f" fill="#ECEEF0" transform="matrix(2.1669721136829363,0,0,2.1669721136829363,94.87673878348407,128.29777353749455)"><path d="M1.48 14L2.58 14L2.58 3.78L1.48 3.78ZM4.35 8.83L8.64 3.78L7.32 3.78L3.35 8.54L3.35 9.21L7.55 14L8.93 14ZM12.88 6.58C11.16 6.58 9.94 7.56 9.84 9.02L10.84 9.02C10.89 8.18 11.69 7.49 12.84 7.49C14.13 7.49 14.88 8.16 14.88 9.67L14.88 9.94L12.61 9.93C10.70 9.93 9.55 10.79 9.55 12.01C9.55 13.27 10.60 14.14 11.94 14.14C13.23 14.14 14.25 13.55 15.01 12.96L15.22 14L15.90 14L15.90 9.67C15.90 7.70 14.81 6.58 12.88 6.58ZM10.58 12.00C10.58 11.19 11.30 10.79 12.63 10.79L14.88 10.79L14.88 12.11C14.13 12.70 13.17 13.22 12.15 13.22C11.30 13.22 10.58 12.78 10.58 12.00ZM18.84 5.10C19.28 5.10 19.64 4.73 19.64 4.27C19.64 3.85 19.28 3.50 18.84 3.50C18.40 3.50 18.05 3.85 18.05 4.27C18.05 4.73 18.40 5.10 18.84 5.10ZM19.33 6.72L18.28 6.72L18.28 14L19.33 14ZM27.55 3.08L27.55 7.66C26.91 6.94 26.03 6.58 24.95 6.58C22.90 6.58 21.27 8.20 21.27 10.33C21.27 12.52 22.89 14.14 24.96 14.14C26.15 14.14 27.05 13.69 27.69 12.87L27.89 14L28.56 14L28.56 3.08ZM24.99 13.23C23.56 13.23 22.33 11.97 22.33 10.33C22.33 8.72 23.56 7.49 24.99 7.49C26.19 7.49 27.05 8.11 27.52 9.03L27.52 11.68C27.03 12.63 26.21 13.23 24.99 13.23ZM31.60 5.10C32.03 5.10 32.40 4.73 32.40 4.27C32.40 3.85 32.03 3.50 31.60 3.50C31.15 3.50 30.80 3.85 30.80 4.27C30.80 4.73 31.15 5.10 31.60 5.10ZM32.09 6.72L31.04 6.72L31.04 14L32.09 14ZM49.53 3.78L47.29 12.53L44.65 3.78L43.61 3.78L40.87 12.45L38.57 3.78L37.42 3.78L40.32 14L41.37 14L44.14 5.26L46.76 14L47.84 14L50.61 3.78ZM54.92 6.58C53.20 6.58 51.98 7.56 51.88 9.02L52.88 9.02C52.93 8.18 53.73 7.49 54.88 7.49C56.17 7.49 56.92 8.16 56.92 9.67L56.92 9.94L54.66 9.93C52.74 9.93 51.59 10.79 51.59 12.01C51.59 13.27 52.64 14.14 53.98 14.14C55.27 14.14 56.29 13.55 57.05 12.96L57.26 14L57.95 14L57.95 9.67C57.95 7.70 56.85 6.58 54.92 6.58ZM52.63 12.00C52.63 11.19 53.34 10.79 54.67 10.79L56.92 10.79L56.92 12.11C56.17 12.70 55.22 13.22 54.19 13.22C53.34 13.22 52.63 12.78 52.63 12.00ZM64.57 6.58C63.41 6.58 62.34 6.99 61.22 7.78L61.05 6.72L60.30 6.72L60.30 14L61.33 14L61.33 8.65C62.33 7.98 63.39 7.50 64.30 7.50C65.41 7.50 66.04 8.12 66.04 9.30L66.04 14L67.09 14L67.09 9.25C67.09 7.50 66.14 6.58 64.57 6.58ZM75.47 6.72L75.31 7.87C74.68 7.03 73.74 6.58 72.56 6.58C70.52 6.58 68.88 8.20 68.88 10.32C68.88 12.46 70.50 14.07 72.59 14.07C73.75 14.07 74.62 13.65 75.24 12.87L75.24 13.71C75.24 15.11 74.10 16.06 72.67 16.06C71.54 16.06 70.59 15.57 70.42 14.80L69.41 14.80C69.71 16.10 70.98 16.95 72.67 16.95C74.69 16.95 76.20 15.64 76.20 13.71L76.20 6.72ZM72.63 13.17C71.18 13.17 69.94 11.91 69.94 10.32C69.94 8.72 71.18 7.49 72.63 7.49C73.84 7.49 74.70 8.13 75.17 9.09L75.17 11.56C74.68 12.56 73.84 13.17 72.63 13.17Z"></path></g><defs data-v-fde0c5aa=""><!----></defs><g data-v-fde0c5aa="" id="ffba23e4-5418-4c4f-93dd-97c5623755f8" stroke="none" fill="#ECEEF0" transform="matrix(1.4088705485333295,0,0,1.4088705485333295,40,127.45807122346673)"><path d="M9.571 20.464l8.064 4.47 8.065-4.47v-8.939l-8.065-4.469-8.064 4.469z"></path><path d="M32 0H0v32h32l-5.054-5.172H5.054V5.172h21.892z"></path></g><!----></svg>